<svg xmlns="http://www.w3.org/2000/svg" width="1200" height="630" viewBox="0 0 1200 630">
  <defs>
    <linearGradient id="bg" x1="0" y1="0" x2="1" y2="1">
      <stop offset="0%" stop-color="#061108"/>
      <stop offset="55%" stop-color="#0d1f11"/>
      <stop offset="100%" stop-color="#030603"/>
    </linearGradient>
    <radialGradient id="glowA" cx="78%" cy="22%" r="34%">
      <stop offset="0%" stop-color="rgba(31,255,89,0.38)"/>
      <stop offset="45%" stop-color="rgba(31,255,89,0.12)"/>
      <stop offset="100%" stop-color="rgba(31,255,89,0)"/>
    </radialGradient>
    <radialGradient id="glowB" cx="12%" cy="86%" r="30%">
      <stop offset="0%" stop-color="rgba(31,255,89,0.22)"/>
      <stop offset="48%" stop-color="rgba(31,255,89,0.08)"/>
      <stop offset="100%" stop-color="rgba(31,255,89,0)"/>
    </radialGradient>
  </defs>
  <rect width="1200" height="630" fill="url(#bg)"/>
  <rect width="1200" height="6" fill="#14f000"/>
  <rect width="1200" height="630" fill="url(#glowA)"/>
  <rect width="1200" height="630" fill="url(#glowB)"/>
  <g opacity="0.12" stroke="#dfffe0">
    <path d="M0 120H1200"/>
    <path d="M0 240H1200"/>
    <path d="M0 360H1200"/>
    <path d="M0 480H1200"/>
    <path d="M140 0V630"/>
    <path d="M360 0V630"/>
    <path d="M580 0V630"/>
    <path d="M800 0V630"/>
    <path d="M1020 0V630"/>
  </g>
  <g font-family="Arial, Helvetica, sans-serif">
    <text x="92" y="124" fill="#f4f7f3" font-size="54" font-weight="700">72</text>
    <text x="154" y="124" fill="#14f000" font-size="54" font-weight="700">hours</text>
    <text x="92" y="252" fill="#14f000" font-size="24" font-weight="700" letter-spacing="4">ENTRY / GREEN BOOK / ECOSYSTEM</text>
    <text x="92" y="370" fill="#f4f7f3" font-size="110" font-weight="700">Hold 72H.</text>
    <text x="92" y="470" fill="#f4f7f3" font-size="110" font-weight="700">See the path.</text>
    <text x="92" y="548" fill="#b9c2b8" font-size="34" font-weight="500">Use, participation, and learning. Not investment advice.</text>
    <text x="760" y="522" fill="rgba(20,240,0,0.14)" font-size="210" font-weight="700">72H</text>
  </g>
</svg>
